<svg width="97" height="20" viewBox="0 0 97 20" fill="none" xmlns="http://www.w3.org/2000/svg">
<g clip-path="url(#clip0_72_9)">
<path d="M91.2376 6.77409C88.1706 10.9877 89.2584 15.344 89.2584 15.344L87.1846 14.4713C87.3848 10.3604 89.056 8.09097 89.9421 6.95219M89.1833 4.57871C89.0115 4.65829 88.8371 4.74402 88.6877 4.84753C86.8048 6.01529 86.1555 8.21569 86.9407 10.2169C86.8902 8.71291 87.5989 7.2608 88.9992 6.38903C89.0881 6.33242 89.1788 6.29101 89.2651 6.24055C89.8876 5.90218 90.5767 5.71481 91.2703 5.65227C93.0232 7.05542 93.7655 9.31345 92.9432 11.2675C92.7518 11.7222 92.4922 12.1265 92.1833 12.4738C93.0665 11.9993 93.775 11.2631 94.1732 10.3168C94.7809 8.87282 94.5307 7.26307 93.6572 5.95516C94.688 6.30939 95.6698 6.95403 96.3815 7.85387C96.704 8.28617 96.9558 8.73206 97.1367 9.19156C97.1004 8.2143 96.7515 7.20672 96.0648 6.32466C95.271 5.31069 94.176 4.62564 92.9802 4.29602C93.4084 4.07119 93.8911 3.89098 94.4274 3.77672C94.937 3.68738 95.4604 3.66173 95.9787 3.70626C94.9729 3.31192 93.8585 3.17566 92.7678 3.3893C92.2107 3.49482 91.7177 3.69962 91.286 3.95193C91.2169 3.92284 91.1573 3.89051 91.0881 3.86142C88.8761 2.9305 86.4571 3.43865 85.0824 4.96494C86.2652 4.3199 87.7378 4.1657 89.1833 4.57871Z" fill="white"/>
<ellipse cx="86.5" cy="17.5" rx="6.5" ry="4.5" fill="white"/>
</g>
<path d="M3.705 16H0V15.43C0.16 15.33 0.33 15.245 0.51 15.175C0.7 15.095 0.885 15.035 1.065 14.995L4.935 5.31998H6.045L9.81 14.995C10.01 15.035 10.21 15.095 10.41 15.175C10.61 15.245 10.785 15.33 10.935 15.43V16H6.24V15.43C6.43 15.34 6.635 15.255 6.855 15.175C7.075 15.095 7.285 15.035 7.485 14.995L6.615 12.61H3.285L2.4 14.995C2.86 15.055 3.295 15.2 3.705 15.43V16ZM3.645 11.635H6.3L5.325 8.76998L5.04 7.47998H5.01L4.68 8.79998L3.645 11.635Z" fill="white"/>
<path d="M15.3827 19H11.2427V18.415C11.5827 18.255 11.9127 18.135 12.2327 18.055V9.56498L11.2427 9.44498V8.85998C11.4027 8.78998 11.5977 8.72498 11.8277 8.66498C12.0677 8.60498 12.3127 8.55498 12.5627 8.51498C12.8127 8.46498 13.0527 8.42498 13.2827 8.39498C13.5227 8.36498 13.7227 8.33998 13.8827 8.31998H14.3927V9.99998H14.4077C14.5777 9.51998 14.8427 9.11998 15.2027 8.79998C15.5727 8.47998 16.0827 8.31998 16.7327 8.31998C17.1727 8.31998 17.5677 8.39498 17.9177 8.54498C18.2777 8.68498 18.5777 8.90998 18.8177 9.21998C19.0677 9.51998 19.2577 9.90998 19.3877 10.39C19.5277 10.86 19.5977 11.425 19.5977 12.085C19.5977 12.715 19.5077 13.285 19.3277 13.795C19.1577 14.305 18.9077 14.735 18.5777 15.085C18.2577 15.435 17.8627 15.705 17.3927 15.895C16.9327 16.085 16.4077 16.18 15.8177 16.18C15.4777 16.18 15.2077 16.155 15.0077 16.105C14.8177 16.065 14.6127 15.99 14.3927 15.88V18.055C14.5527 18.075 14.7127 18.11 14.8727 18.16C15.0327 18.22 15.2027 18.305 15.3827 18.415V19ZM15.8627 9.51998C15.5227 9.51998 15.2177 9.63998 14.9477 9.87998C14.6877 10.12 14.5027 10.49 14.3927 10.99V14.98C14.5527 15.1 14.7227 15.19 14.9027 15.25C15.0827 15.3 15.3177 15.325 15.6077 15.325C16.1777 15.325 16.5977 15.05 16.8677 14.5C17.1377 13.95 17.2727 13.145 17.2727 12.085C17.2727 11.265 17.1677 10.635 16.9577 10.195C16.7577 9.74498 16.3927 9.51998 15.8627 9.51998Z" fill="white"/>
<path d="M24.3884 14.365C24.3884 14.105 24.2934 13.88 24.1034 13.69C23.9234 13.5 23.6934 13.325 23.4134 13.165C23.1434 13.005 22.8434 12.845 22.5134 12.685C22.1934 12.525 21.8934 12.34 21.6134 12.13C21.3434 11.91 21.1134 11.655 20.9234 11.365C20.7434 11.075 20.6534 10.72 20.6534 10.3C20.6534 9.99998 20.7234 9.72998 20.8634 9.48998C21.0034 9.23998 21.1934 9.02998 21.4334 8.85998C21.6734 8.68998 21.9584 8.55998 22.2884 8.46998C22.6284 8.36998 22.9934 8.31998 23.3834 8.31998C23.9234 8.31998 24.4234 8.36498 24.8834 8.45498C25.3534 8.53498 25.7634 8.64998 26.1134 8.79998C26.0734 9.11998 25.9934 9.46498 25.8734 9.83498C25.7534 10.195 25.6384 10.525 25.5284 10.825H25.0184L24.3884 9.29498C24.2684 9.24498 24.1434 9.21498 24.0134 9.20498C23.8834 9.18498 23.7384 9.17498 23.5784 9.17498C23.2784 9.17498 23.0484 9.26498 22.8884 9.44498C22.7384 9.61498 22.6634 9.80998 22.6634 10.03C22.6634 10.28 22.7534 10.5 22.9334 10.69C23.1234 10.87 23.3534 11.04 23.6234 11.2C23.9034 11.36 24.2034 11.52 24.5234 11.68C24.8534 11.84 25.1534 12.025 25.4234 12.235C25.7034 12.435 25.9334 12.675 26.1134 12.955C26.3034 13.235 26.3984 13.57 26.3984 13.96C26.3984 14.65 26.1184 15.195 25.5584 15.595C24.9984 15.985 24.2484 16.18 23.3084 16.18C22.8284 16.18 22.3334 16.13 21.8234 16.03C21.3134 15.93 20.8734 15.79 20.5034 15.61C20.5234 15.25 20.6084 14.885 20.7584 14.515C20.9084 14.145 21.0684 13.815 21.2384 13.525H21.7484L22.4834 15.16C22.5934 15.24 22.7134 15.29 22.8434 15.31C22.9834 15.32 23.1134 15.325 23.2334 15.325C23.5234 15.325 23.7884 15.24 24.0284 15.07C24.2684 14.9 24.3884 14.665 24.3884 14.365Z" fill="white"/>
<path d="M36.3306 16H32.3556V15.415C32.4856 15.345 32.6106 15.285 32.7306 15.235C32.8606 15.175 33.0106 15.115 33.1806 15.055V11.53C33.1806 10.9 33.0906 10.41 32.9106 10.06C32.7306 9.69998 32.4106 9.51998 31.9506 9.51998C31.5706 9.51998 31.2406 9.64498 30.9606 9.89498C30.6906 10.135 30.4856 10.465 30.3456 10.885V15.055C30.5056 15.095 30.6456 15.145 30.7656 15.205C30.8956 15.255 31.0306 15.325 31.1706 15.415V16H27.1956V15.415C27.4456 15.285 27.7756 15.165 28.1856 15.055V9.56498L27.1956 9.44498V8.85998C27.3256 8.79998 27.4956 8.74498 27.7056 8.69498C27.9156 8.63498 28.1406 8.57998 28.3806 8.52998C28.6306 8.47998 28.8806 8.43998 29.1306 8.40998C29.3906 8.36998 29.6256 8.33998 29.8356 8.31998H30.3456V9.86498H30.3606C30.5706 9.44498 30.8856 9.08498 31.3056 8.78498C31.7256 8.47498 32.2356 8.31998 32.8356 8.31998C33.2256 8.31998 33.5756 8.36998 33.8856 8.46998C34.1956 8.55998 34.4556 8.72498 34.6656 8.96498C34.8856 9.20498 35.0506 9.52998 35.1606 9.93998C35.2806 10.34 35.3406 10.85 35.3406 11.47V15.055C35.7406 15.125 36.0706 15.245 36.3306 15.415V16Z" fill="white"/>
<path d="M37.0739 9.44498C36.9239 9.40498 36.7839 9.35498 36.6539 9.29498C36.5339 9.23498 36.4089 9.16498 36.2789 9.08498V8.49998H40.2239V9.06998C40.0139 9.20998 39.7289 9.33498 39.3689 9.44498L40.8839 13.21L41.1389 14.17H41.1689L41.4089 13.195L42.5789 9.44498C42.2789 9.38498 42.0039 9.26498 41.7539 9.08498V8.49998H44.6489V9.08498C44.4389 9.22498 44.1539 9.34498 43.7939 9.44498L41.3489 16C41.1089 16.64 40.8689 17.16 40.6289 17.56C40.3889 17.97 40.1489 18.295 39.9089 18.535C39.6689 18.775 39.4289 18.94 39.1889 19.03C38.9489 19.13 38.7089 19.195 38.4689 19.225C38.3689 19.135 38.2789 19.02 38.1989 18.88C38.1189 18.75 38.0489 18.605 37.9889 18.445C37.9289 18.295 37.8789 18.14 37.8389 17.98C37.7989 17.82 37.7739 17.67 37.7639 17.53L37.9589 17.17H39.7889C39.8789 17.03 39.9539 16.88 40.0139 16.72C40.0839 16.56 40.1639 16.32 40.2539 16L37.0739 9.44498Z" fill="white"/>
<path d="M56.0467 16H50.8867V15.43C51.0867 15.35 51.3117 15.27 51.5617 15.19C51.8217 15.1 52.0817 15.035 52.3417 14.995V6.47498H50.6017L49.6417 9.03998H49.0267C48.9867 8.83998 48.9467 8.58498 48.9067 8.27498C48.8667 7.96498 48.8317 7.64498 48.8017 7.31498C48.7717 6.98498 48.7467 6.65998 48.7267 6.33998C48.7067 6.00998 48.6967 5.72998 48.6967 5.49998H58.2517C58.2517 5.73998 58.2417 6.01998 58.2217 6.33998C58.2017 6.65998 58.1767 6.98498 58.1467 7.31498C58.1167 7.64498 58.0817 7.96498 58.0417 8.27498C58.0017 8.57498 57.9617 8.82998 57.9217 9.03998H57.2917L56.3317 6.47498H54.5917V14.995C54.8517 15.045 55.1067 15.105 55.3567 15.175C55.6167 15.245 55.8467 15.33 56.0467 15.43V16Z" fill="white"/>
<path d="M62.3725 10.225C62.2525 10.285 62.1125 10.385 61.9525 10.525C61.7925 10.665 61.6475 10.895 61.5175 11.215V15.055C61.7175 15.075 61.9175 15.115 62.1175 15.175C62.3175 15.225 62.5175 15.305 62.7175 15.415V16H58.3675V15.415C58.5475 15.315 58.7175 15.24 58.8775 15.19C59.0375 15.14 59.1975 15.095 59.3575 15.055V9.56498L58.3675 9.44498V8.85998C58.5275 8.78998 58.7225 8.72498 58.9525 8.66498C59.1925 8.60498 59.4375 8.55498 59.6875 8.51498C59.9375 8.46498 60.1775 8.42498 60.4075 8.39498C60.6475 8.36498 60.8475 8.33998 61.0075 8.31998H61.5175V10.315H61.5775C61.6575 10.095 61.7725 9.86498 61.9225 9.62498C62.0825 9.38498 62.2675 9.16498 62.4775 8.96498C62.6875 8.76498 62.9175 8.60498 63.1675 8.48498C63.4175 8.36498 63.6775 8.30998 63.9475 8.31998C64.0575 8.45998 64.1525 8.65998 64.2325 8.91998C64.3125 9.16998 64.3775 9.40998 64.4275 9.63998V10.225H62.3725Z" fill="white"/>
<path d="M69.0874 16H64.9474V15.415C65.0974 15.335 65.2524 15.27 65.4124 15.22C65.5724 15.16 65.7474 15.105 65.9374 15.055V9.56498L64.9474 9.44498V8.85998C65.0974 8.79998 65.2824 8.73998 65.5024 8.67998C65.7324 8.61998 65.9724 8.56998 66.2224 8.52998C66.4724 8.47998 66.7174 8.43998 66.9574 8.40998C67.1974 8.36998 67.4074 8.33998 67.5874 8.31998H68.0974V15.055C68.2974 15.105 68.4774 15.16 68.6374 15.22C68.7974 15.27 68.9474 15.335 69.0874 15.415V16ZM65.6824 6.03998C65.6824 5.68998 65.8024 5.41498 66.0424 5.21498C66.2824 5.01498 66.5924 4.91498 66.9724 4.91498C67.3524 4.91498 67.6624 5.01498 67.9024 5.21498C68.1424 5.41498 68.2624 5.68998 68.2624 6.03998C68.2624 6.37998 68.1424 6.64998 67.9024 6.84998C67.6624 7.04998 67.3524 7.14998 66.9724 7.14998C66.5924 7.14998 66.2824 7.04998 66.0424 6.84998C65.8024 6.64998 65.6824 6.37998 65.6824 6.03998Z" fill="white"/>
<path d="M73.9179 19H69.7779V18.415C70.1179 18.255 70.4479 18.135 70.7679 18.055V9.56498L69.7779 9.44498V8.85998C69.9379 8.78998 70.1329 8.72498 70.3629 8.66498C70.6029 8.60498 70.8479 8.55498 71.0979 8.51498C71.3479 8.46498 71.5879 8.42498 71.8179 8.39498C72.0579 8.36498 72.2579 8.33998 72.4179 8.31998H72.9279V9.99998H72.9429C73.1129 9.51998 73.3779 9.11998 73.7379 8.79998C74.1079 8.47998 74.6179 8.31998 75.2679 8.31998C75.7079 8.31998 76.1029 8.39498 76.4529 8.54498C76.8129 8.68498 77.1129 8.90998 77.3529 9.21998C77.6029 9.51998 77.7929 9.90998 77.9229 10.39C78.0629 10.86 78.1329 11.425 78.1329 12.085C78.1329 12.715 78.0429 13.285 77.8629 13.795C77.6929 14.305 77.4429 14.735 77.1129 15.085C76.7929 15.435 76.3979 15.705 75.9279 15.895C75.4679 16.085 74.9429 16.18 74.3529 16.18C74.0129 16.18 73.7429 16.155 73.5429 16.105C73.3529 16.065 73.1479 15.99 72.9279 15.88V18.055C73.0879 18.075 73.2479 18.11 73.4079 18.16C73.5679 18.22 73.7379 18.305 73.9179 18.415V19ZM74.3979 9.51998C74.0579 9.51998 73.7529 9.63998 73.4829 9.87998C73.2229 10.12 73.0379 10.49 72.9279 10.99V14.98C73.0879 15.1 73.2579 15.19 73.4379 15.25C73.6179 15.3 73.8529 15.325 74.1429 15.325C74.7129 15.325 75.1329 15.05 75.4029 14.5C75.6729 13.95 75.8079 13.145 75.8079 12.085C75.8079 11.265 75.7029 10.635 75.4929 10.195C75.2929 9.74498 74.9279 9.51998 74.3979 9.51998Z" fill="white"/>
<defs>
<clipPath id="clip0_72_9">
<rect width="18" height="16" fill="white" transform="matrix(-1 0 0 1 97 0)"/>
</clipPath>
</defs>
</svg>
