<svg width="162" height="65" viewBox="0 0 162 65" fill="none" xmlns="http://www.w3.org/2000/svg">
<path fill-rule="evenodd" clip-rule="evenodd" d="M18.4742 52.6969C18.4742 54.2171 18.7737 55.7223 19.3554 57.1267C19.9371 58.5311 20.7897 59.8072 21.8646 60.882C22.9395 61.9569 24.2156 62.8096 25.62 63.3913C27.0244 63.973 28.5296 64.2724 30.0497 64.2724C31.5699 64.2724 33.0751 63.973 34.4795 63.3913C35.8839 62.8096 37.16 61.9569 38.2349 60.882C39.3098 59.8072 40.1624 58.5311 40.7441 57.1267C41.3258 55.7223 41.6253 54.2171 41.6253 52.6969C41.6253 49.6269 40.4057 46.6827 38.2349 44.5118C36.064 42.341 33.1198 41.1214 30.0497 41.1214C28.5296 41.1214 27.0244 41.4208 25.62 42.0026C24.2156 42.5843 22.9395 43.4369 21.8646 44.5118C20.7897 45.5867 19.9371 46.8628 19.3554 48.2672C18.7737 49.6716 18.4742 51.1768 18.4742 52.6969ZM114.707 53.1097C114.707 56.1798 115.927 59.124 118.098 61.2949C120.268 63.4657 123.213 64.6852 126.283 64.6852C127.803 64.6852 129.308 64.3858 130.713 63.8041C132.117 63.2224 133.393 62.3697 134.468 61.2949C135.543 60.22 136.395 58.9439 136.977 57.5395C137.559 56.1351 137.858 54.6299 137.858 53.1097C137.858 51.5896 137.559 50.0844 136.977 48.68C136.395 47.2756 135.543 45.9995 134.468 44.9246C133.393 43.8497 132.117 42.9971 130.713 42.4154C129.308 41.8337 127.803 41.5342 126.283 41.5342C124.763 41.5342 123.257 41.8337 121.853 42.4154C120.449 42.9971 119.173 43.8497 118.098 44.9246C117.023 45.9995 116.17 47.2756 115.588 48.68C115.007 50.0844 114.707 51.5896 114.707 53.1097ZM128.206 22.5199C128.353 22.3908 141.121 21.9656 145.077 21.958C146.927 21.9544 147.386 21.825 148.107 21.1037C148.693 20.5177 148.957 19.8684 148.957 19.0136C148.957 17.353 147.479 12.9889 145.906 10.0063C144.879 8.0582 144.326 7.41758 143.088 6.73909C141.351 5.78756 138.656 5.55928 123.88 5.11206L115.946 4.87193L116.171 8.47761C116.294 10.4607 116.499 14.46 116.625 17.3649L116.855 22.6464H122.458C125.54 22.6464 128.127 22.5895 128.206 22.5199ZM106.115 22.9867C111.023 22.8564 115.121 22.6676 115.222 22.5672C115.394 22.3947 114.862 10.6245 114.513 6.88831C114.424 5.93589 114.347 5.09959 114.343 5.02986C114.338 4.96013 107.012 4.96315 98.0624 5.03657C84.2169 5.15015 81.7133 5.24717 81.2732 5.68721C80.8601 6.10033 80.7086 7.78831 80.5201 14.0778C80.301 21.3874 80.329 22.0009 80.9121 22.6451C81.5083 23.304 81.9359 23.3362 89.3655 23.2814C93.6694 23.2496 101.207 23.117 106.115 22.9867V22.9867ZM66.8868 22.9781C72.9651 22.7138 73.6782 22.5792 73.9763 21.6397C74.3343 20.5119 75.5339 10.3496 75.5395 8.39776C75.5446 6.60343 75.4748 6.42625 74.6843 6.22784C73.6073 5.95753 66.6418 6.56405 62.7308 7.26868C59.4937 7.85188 55.3064 9.42882 51.825 11.3757C49.8828 12.4618 49.5702 12.7718 49.5702 13.6107C49.5702 14.4456 49.6861 14.5626 50.3818 14.4296C50.9031 14.3299 51.5319 14.5656 52.1399 15.0886C52.9576 15.792 53.1344 16.2998 53.4393 18.8221C53.7592 21.4675 53.7342 21.784 53.1735 22.194C52.8332 22.4428 52.2729 22.6464 51.9283 22.6464C51.5837 22.6464 51.3018 22.8023 51.3018 22.9928C51.3018 23.3806 57.7681 23.3746 66.8868 22.9781ZM43.2928 22.5255C43.5061 22.2685 43.8349 21.2944 44.0235 20.3609C44.2121 19.4274 44.5156 18.0446 44.698 17.288C44.8804 16.5314 44.9738 15.8566 44.9056 15.7884C44.5807 15.4635 36.9558 21.2795 36.6451 22.0893C36.3391 22.8865 36.7206 22.9928 39.8882 22.9928C41.9974 22.9928 43.0217 22.8522 43.2928 22.5255ZM43.2353 50.8144C42.9962 49.1679 42.7754 47.6484 41.9363 45.9952C40.1289 42.4344 37.8954 40.7059 33.1623 39.7883C30.9466 39.3587 30.1501 39.3158 28.2488 39.5951C23.4953 40.2933 20.5177 42.2378 18.7188 45.3758C18.0777 46.4942 17.5245 47.565 17.4896 47.7555C17.4547 47.946 17.2595 48.8032 17.0558 49.6603C16.8521 50.5175 16.6817 51.7253 16.677 52.3444L16.9891 53.6432L11.0732 53.5694C2.61859 53.4641 1.78769 53.3006 1.76411 51.4706C1.75742 50.9512 1.54385 49.5563 1.28951 48.371C0.900513 46.5581 0.902451 46.0705 1.30167 45.301C1.85477 44.2349 1.93164 42.1779 1.42995 41.8679C0.739655 41.4412 1.10912 40.2146 2.28084 39.0429C3.27032 38.0534 3.4901 37.5636 3.54747 36.2203C3.69226 32.8302 5.60672 30.8407 11.711 27.7367C16.7423 25.1783 23.8241 22.5855 25.7522 22.5959C26.8245 22.6016 27.4995 22.2347 29.735 20.4307C40.7281 11.5594 50.5023 5.48807 57.5498 3.15322C64.3462 0.901565 62.2266 1.00065 103.598 1.00065C132.038 1.00065 141.933 1.10725 144.292 1.43906C147.369 1.87177 147.428 1.89878 148.9 3.51705C152.655 7.64811 155.86 14.7894 157.639 22.9928C158.417 26.5815 158.942 34.6722 158.462 35.6905C158.298 36.0403 158.159 38.3129 158.154 40.7407L158.145 45.1549L159.229 45.1566C161.435 45.1597 161.511 46.0569 159.841 52.3446C159.776 52.5864 159.191 52.7775 158.515 52.7775C157.663 52.7775 157.195 52.9805 156.937 53.463C156.593 54.1062 156.14 54.1543 149.601 54.2422L142.632 54.336L142.147 56.0032C141.783 57.2494 141.512 57.6421 141.072 57.5585C140.634 57.4754 140.403 56.89 140.174 55.2852C139.882 53.2334 140.041 52.7773 140.041 52.7773L139.848 50.9773C139.555 48.2495 137.555 44.5204 135.263 42.4255C133.198 40.5378 132.113 39.924 129.4 39.1067C123.626 37.3679 116.901 40.5136 113.769 46.4177C113.184 47.5213 112.228 50.5255 112.073 51.7457C111.941 52.7903 111.91 53.2573 111.91 53.8163C111.91 54.5026 111.679 54.509 86.8875 54.5098C73.1251 54.5101 58.2408 54.6131 53.8112 54.7383L45.7574 54.966L45.3993 56.296C45.1878 57.0812 44.8303 57.626 44.5264 57.626C43.9177 57.626 43.3362 56.2613 43.3362 54.8328C43.5064 52.5575 43.4278 52.1404 43.2353 50.8144ZM119.879 53.1202C119.879 56.6588 122.748 59.5273 126.286 59.5273C129.825 59.5273 132.693 56.6588 132.693 53.1202C132.693 49.5816 129.825 46.713 126.286 46.713C122.748 46.713 119.879 49.5816 119.879 53.1202ZM23.429 52.6042C23.429 56.1427 26.2976 59.0113 29.8362 59.0113C33.3747 59.0113 36.2433 56.1427 36.2433 52.6042C36.2433 49.0656 33.3747 46.197 29.8362 46.197C26.2976 46.197 23.429 49.0656 23.429 52.6042Z" fill="#434F44" stroke="#434F44" stroke-width="0.224689" stroke-miterlimit="5.89256"/>
</svg>
