<svg width="16" height="21" viewBox="0 0 16 21" fill="none" xmlns="http://www.w3.org/2000/svg">
<g clip-path="url(#clip0_2_29)">
<path d="M14.4529 18.822L13.3924 20.1789C13.2029 20.42 12.6482 20.5724 12.6316 20.5724C9.27431 20.6086 6.042 18.9221 3.6666 15.8822C1.28438 12.835 -0.0353942 8.68332 0.0012307 4.37547C0.0012307 4.37295 0.122824 3.68331 0.311793 3.44343L1.37232 2.08535C1.76148 1.5881 2.50654 1.36321 3.02851 1.58558L3.25213 1.68178C3.7741 1.90415 4.31947 2.64128 4.464 3.31968L4.99816 5.82718C5.14316 6.50686 4.94835 7.47385 4.55969 7.97109L3.85072 8.87814C4.54603 12.1753 6.56694 14.7602 9.14256 15.651L9.85152 14.7439C10.2402 14.2467 10.998 13.9981 11.5292 14.183L13.4892 14.8676C14.0185 15.0513 14.5946 15.7484 14.7694 16.4168L14.8436 16.7029C15.0173 17.3715 14.8416 18.3248 14.4529 18.822ZM8.99996 10.3375H9.99993C9.99993 8.92444 9.10446 7.77878 8 7.77878V9.05814C8.55121 9.05814 8.99996 9.63283 8.99996 10.3375ZM12.9998 10.3375C12.9998 6.80424 10.7616 3.94067 8 3.94067V5.22007C10.206 5.22007 11.9999 7.51643 11.9999 10.3375H12.9998ZM8 0.1026V1.38196C11.8592 1.38196 14.9998 5.39994 14.9998 10.3375H15.9997C15.9997 4.68532 12.4178 0.1026 8 0.1026Z" fill="white"/>
</g>
<defs>
<clipPath id="clip0_2_29">
<rect width="16" height="20.4704" fill="white" transform="translate(0 0.1026)"/>
</clipPath>
</defs>
</svg>
