<svg width="220" height="76" viewBox="0 0 220 76" fill="none" xmlns="http://www.w3.org/2000/svg">
<path d="M109.171 0.460136C97.7556 1.11302 90.9957 2.42327 90.9957 3.9489C90.9957 5.03928 61.0417 22.9251 59.1526 22.9251C58.2798 22.9251 57.9164 22.5616 58.134 21.9805C58.4257 21.1818 57.6988 21.1078 54.4254 21.5453C52.0988 21.8347 47.1562 22.4898 43.3735 22.9273C28.5412 24.7446 10.7295 29.8353 6.22214 33.6157C5.05772 34.6343 3.38626 36.741 2.58754 38.3407C0.842042 41.7554 -0.611795 49.0268 0.260956 49.8996C0.624415 50.2631 3.60613 50.7701 6.87726 51.0618L12.7667 51.497L11.6763 53.606C10.4401 56.0044 8.11347 57.0947 4.04138 57.0947C2.51351 57.0947 1.2055 57.4582 1.2055 57.8957C1.2055 59.3495 7.45835 61.1668 17.0541 62.4748L20.1817 62.9101L19.7464 60.4377C19.0913 57.0207 21.1285 49.6775 23.7445 45.8971C29.5598 37.3917 41.7739 34.4099 51.0802 39.1349C58.1318 42.7695 62.2757 49.1682 62.859 57.3101L63.2224 62.3268L69.1118 61.8915C72.383 61.6739 87.7963 61.3104 103.356 61.0906C118.987 60.8729 136.217 60.5095 141.743 60.2918L151.705 59.7826V57.0925C151.705 49.1682 158.684 40.0795 166.609 37.7529C177.297 34.6994 188.201 39.4984 192.854 49.4576C193.799 51.4207 194.6 54.3284 194.6 55.7823C194.6 59.0534 193.873 58.9816 206.378 57.2361C216.557 55.7823 218.81 54.6919 218.447 51.3467C218.375 50.3281 218.738 47.6381 219.247 45.3855C220.12 41.7509 220.12 41.024 219.03 38.915C218.377 37.607 217.868 35.5699 217.868 34.4077C217.868 32.5186 217.722 32.3728 214.668 32.3728C210.307 32.3728 207.108 31.6459 206.744 30.5555C206.526 30.1202 207.325 28.1571 208.561 26.3398C210.45 23.3581 211.106 22.9228 213.215 22.9228C214.597 22.9228 215.687 22.6334 215.687 22.1959C215.687 20.3786 211.689 19.0706 204.563 18.4155C195.185 17.6168 193.657 17.1075 184.934 12.2367C176.355 7.36586 164.65 3.14794 155.344 1.55052C146.758 0.0966797 124.001 -0.484409 109.171 0.460136ZM145.739 4.46043C151.774 4.96973 151.337 4.3146 152.064 14.3479L152.499 20.7466H135.777H118.982L119.346 16.1674C120.218 5.77068 120.436 4.46267 121.309 3.87934C122.184 3.22422 134.469 3.58768 145.739 4.46043ZM115.35 5.04152C115.35 6.0601 112.37 20.9619 112.15 21.2536C111.933 21.4712 73.0359 23.652 69.9105 23.5802H67.7298L70.274 21.3254C78.49 14.1998 92.3755 7.07644 102.117 5.11331C108.879 3.80531 115.35 3.73351 115.35 5.04152ZM164.423 9.83829C166.896 11.0027 169.586 12.746 170.459 13.6905L172.058 15.3642L170.167 18.0543L168.35 20.7443H162.606H156.791V18.7094C156.791 17.619 156.573 14.4937 156.282 11.7296L155.846 6.71298L157.955 7.22227C159.117 7.5117 162.025 8.67611 164.423 9.83829ZM18.7996 35.9401C19.9618 36.3753 19.89 36.667 18.1445 39.1394L16.2554 41.8272H9.42148H2.58754L3.89555 39.5747C6.73143 34.7756 7.38656 34.4122 12.7667 34.9955C15.3827 35.2849 18.1467 35.7224 18.7996 35.9401Z" fill="#434F44"/>
<path d="M32.8332 43.1375C21.7096 49.1727 20.691 65.1672 31.0159 72.728C39.9588 79.3443 53.335 75.4899 57.7706 65.0931C59.2244 61.6762 59.1526 55.2057 57.6247 51.6429C54.7888 44.883 48.8277 41.1003 41.1928 41.1003C37.4123 41.1003 35.7409 41.5378 32.8332 43.1375ZM46.7905 47.3554C53.0433 50.3349 55.4417 58.4791 51.8071 64.6579C49.7722 68.1466 45.2649 70.9107 41.4822 70.9107C38.8639 70.9107 33.9931 68.73 32.3217 66.8409C28.1778 62.1159 28.032 55.2797 31.9582 50.7724C35.8867 46.2628 41.6303 44.9548 46.7905 47.3554Z" fill="#434F44"/>
<path d="M166.241 42.2647C162.97 43.7186 159.261 47.2814 157.298 50.916C155.189 54.914 155.189 62.1137 157.37 66.2576C162.604 76.4367 175.837 79.1245 184.416 71.7835C197.068 61.0233 189.724 41.0285 173.221 41.1003C170.75 41.1744 167.623 41.6837 166.241 42.2647ZM178.091 47.2073C184.997 50.0432 187.615 59.639 183.18 65.746C180.999 68.7995 175.837 71.0543 172.202 70.6909C168.276 70.2556 163.914 67.3479 162.386 64.1486C160.858 61.0233 160.787 55.5692 162.169 52.8791C165.079 47.2073 172.13 44.6631 178.091 47.2073Z" fill="#434F44"/>
</svg>
